<?xml version="1.0" encoding="utf-8"?>
<!-- Generator: Adobe Illustrator 23.0.2, SVG Export Plug-In . SVG Version: 6.00 Build 0)  -->
<svg version="1.1" id="Camada_1" xmlns="http://www.w3.org/2000/svg" xmlns:xlink="http://www.w3.org/1999/xlink" x="0px" y="0px"
	 viewBox="0 0 841.9 595.3" style="enable-background:new 0 0 841.9 595.3;" xml:space="preserve">
<style type="text/css">
	.st0{fill:#F8F7F9;}
	.st1{fill:#03A89F;}
	.st2{fill:#6BB433;}
</style>
<g>
	<path class="st0" d="M322.9,318.8h48.4v14.3h-73.4l49.5-86.5H306v-14.3h66.4L322.9,318.8z"/>
	<path class="st0" d="M366.3,333.1V232.3h21.2c10.1,0,18.2,1,24,3c6.3,2,12,5.3,17.2,10c10.4,9.5,15.6,22,15.6,37.4
		c0,15.5-5.4,28-16.3,37.6c-5.4,4.8-11.1,8.1-17.1,10c-5.6,1.9-13.5,2.8-23.7,2.8H366.3z M381.5,318.8h6.9c6.8,0,12.5-0.7,17-2.2
		c4.5-1.5,8.6-3.9,12.3-7.2c7.5-6.8,11.2-15.7,11.2-26.7c0-11.1-3.7-20-11.1-26.9c-6.7-6.1-16.5-9.2-29.5-9.2h-6.9V318.8z"/>
	<path class="st1" d="M463.2,286.3v-13c6.4,0,10.8-0.7,13-2.2c4-2.5,5.9-6.6,5.9-12.1c0-4.3-1.4-7.8-4.3-10.5
		c-2.8-2.7-6.5-4.1-11-4.1c-4.2,0-7.5,1-9.8,3.1c-2.2,2.1-3.9,5.6-5,10.6h-15.2c1.6-9.5,4.8-16.4,9.7-20.9
		c4.9-4.4,11.7-6.6,20.4-6.6c8.8,0,16,2.6,21.6,7.8c5.6,5.2,8.4,11.9,8.4,20.1c0,9.2-3.7,16.4-11,21.6c8.4,4.9,12.5,12.9,12.5,24
		c0,9.1-3,16.5-9.1,22.2c-6.1,5.7-13.9,8.6-23.4,8.6c-12.1,0-21.2-4.5-27-13.4c-2.4-3.7-4-8.9-4.6-15.5H449
		c0.8,4.9,2.7,8.6,5.7,11.2c3,2.6,7,3.9,11.9,3.9c4.9,0,9-1.6,12.2-4.9c3.2-3.4,4.8-7.6,4.8-12.7c0-6.8-2.4-11.6-7.2-14.5
		C473.5,287.1,469.2,286.3,463.2,286.3z"/>
	<path class="st0" d="M528.3,246.6v86.5h-15.2v-86.5h-23.2v-14.3h61.5v14.3H528.3z"/>
</g>
<g>
	<path class="st2" d="M588.3,302.9v0.8l-10.6,10.4l-30.8-30.5v-2l30.8-30.5l10.6,10.4v0.8l-21.1,20.3L588.3,302.9z"/>
</g>
<g>
	<path class="st2" d="M280.8,282.7l-21.1-20.3v-0.8l10.6-10.4l30.8,30.5v2l-30.8,30.5l-10.6-10.4v-0.8L280.8,282.7z"/>
</g>
</svg>
